<svg width="1230" height="297" viewBox="0 0 1230 297" fill="none" xmlns="http://www.w3.org/2000/svg">
<g opacity="0.7">
<path d="M70.0319 225.943L188.436 156.049L308.979 126.963L428.836 84.78L553.433 133.051L673.19 88.9742L800.739 193.577L913.914 23.8918L1038.78 77.3278L1159.07 43.3016M1159.07 43.3016V43.3016Z" stroke="#FF4F42"/>
<circle cx="70.0319" cy="225.943" r="3.5" transform="rotate(-3 70.0319 225.943)" fill="#1A1F26" stroke="#FF928A"/>
<circle cx="188.436" cy="156.049" r="3.5" transform="rotate(-3 188.436 156.049)" fill="#1A1F26" stroke="#FF928A"/>
<circle cx="308.979" cy="126.963" r="3.5" transform="rotate(-3 308.979 126.963)" fill="#1A1F26" stroke="#FF928A"/>
<circle cx="428.836" cy="84.78" r="3.5" transform="rotate(-3 428.836 84.78)" fill="#1A1F26" stroke="#FF928A"/>
<circle cx="553.433" cy="133.051" r="3.5" transform="rotate(-3 553.433 133.051)" fill="#1A1F26" stroke="#FF928A"/>
<circle cx="673.19" cy="88.9741" r="3.5" transform="rotate(-3 673.19 88.9741)" fill="#1A1F26" stroke="#FF928A"/>
<circle cx="800.739" cy="193.577" r="3.5" transform="rotate(-3 800.739 193.577)" fill="#1A1F26" stroke="#FF928A"/>
<circle cx="913.914" cy="23.8919" r="3.5" transform="rotate(-3 913.914 23.8919)" fill="#1A1F26" stroke="#FF928A"/>
<circle cx="1038.78" cy="77.3279" r="3.5" transform="rotate(-3 1038.78 77.3279)" fill="#1A1F26" stroke="#FF928A"/>
<circle cx="1159.07" cy="43.3015" r="3.5" transform="rotate(-3 1159.07 43.3015)" fill="#1A1F26" stroke="#FF928A"/>
<path d="M70.9164 242.819L192.538 234.31L312.851 200.844L428.062 70.024L556.763 196.601L670.756 42.5362L797.167 125.411L915.859 60.9993L1035.76 19.6927L1163.54 128.691" stroke="#00D693"/>
<circle cx="70.9164" cy="242.819" r="3.5" transform="rotate(-3 70.9164 242.819)" fill="#1A1F26" stroke="#00D693"/>
<circle cx="192.538" cy="234.31" r="3.5" transform="rotate(-3 192.538 234.31)" fill="#1A1F26" stroke="#00D693"/>
<circle cx="312.851" cy="200.844" r="3.5" transform="rotate(-3 312.851 200.844)" fill="#1A1F26" stroke="#00D693"/>
<circle cx="428.062" cy="70.0239" r="3.5" transform="rotate(-3 428.062 70.0239)" fill="#1A1F26" stroke="#00D693"/>
<circle cx="556.763" cy="196.601" r="3.5" transform="rotate(-3 556.763 196.601)" fill="#1A1F26" stroke="#00D693"/>
<circle cx="670.756" cy="42.5362" r="3.5" transform="rotate(-3 670.756 42.5362)" fill="#1A1F26" stroke="#00D693"/>
<circle cx="797.167" cy="125.411" r="3.5" transform="rotate(-3 797.167 125.411)" fill="#1A1F26" stroke="#00D693"/>
<circle cx="915.859" cy="60.9993" r="3.5" transform="rotate(-3 915.859 60.9993)" fill="#1A1F26" stroke="#00D693"/>
<circle cx="1035.76" cy="19.6926" r="3.5" transform="rotate(-3 1035.76 19.6926)" fill="#1A1F26" stroke="#00D693"/>
<circle cx="1163.54" cy="128.691" r="3.5" transform="rotate(-3 1163.54 128.691)" fill="#1A1F26" stroke="#00D693"/>
</g>
</svg>
