<svg width="1230" height="297" viewBox="0 0 1230 297" fill="none" xmlns="http://www.w3.org/2000/svg">
<path d="M70.8195 240.973L188.906 165.014L309.335 133.76L429.013 88.1594L553.883 141.648L673.452 93.9723L801.557 209.172L913.914 23.8942L1039.08 83.0413L1159.23 46.3755" stroke="#FF2212" stroke-width="2"/>
<circle cx="70.8196" cy="240.973" r="3.5" transform="rotate(-3 70.8196 240.973)" fill="white" stroke="#FF928A"/>
<circle cx="188.906" cy="165.014" r="3.5" transform="rotate(-3 188.906 165.014)" fill="white" stroke="#FF928A"/>
<circle cx="309.335" cy="133.76" r="3.5" transform="rotate(-3 309.335 133.76)" fill="white" stroke="#FF928A"/>
<circle cx="429.013" cy="88.1594" r="3.5" transform="rotate(-3 429.013 88.1594)" fill="white" stroke="#FF928A"/>
<circle cx="553.883" cy="141.648" r="3.5" transform="rotate(-3 553.883 141.648)" fill="white" stroke="#FF928A"/>
<circle cx="673.452" cy="93.9724" r="3.5" transform="rotate(-3 673.452 93.9724)" fill="white" stroke="#FF928A"/>
<circle cx="801.557" cy="209.172" r="3.5" transform="rotate(-3 801.557 209.172)" fill="white" stroke="#FF928A"/>
<circle cx="913.914" cy="23.8943" r="3.5" transform="rotate(-3 913.914 23.8943)" fill="white" stroke="#FF928A"/>
<circle cx="1039.08" cy="83.0413" r="3.5" transform="rotate(-3 1039.08 83.0413)" fill="white" stroke="#FF928A"/>
<circle cx="1159.23" cy="46.3755" r="3.5" transform="rotate(-3 1159.23 46.3755)" fill="white" fill-opacity="0.8" stroke="#FF928A"/>
<path d="M71.7884 259.461L193.399 250.748L313.577 214.696L428.166 71.9946L557.532 211.266L670.786 43.1006L797.643 134.498L916.044 64.5448L1035.77 19.9034L1164.13 139.918" stroke="#009164" stroke-width="2"/>
<circle cx="71.7885" cy="259.46" r="3.5" transform="rotate(-3 71.7885 259.46)" fill="white" fill-opacity="0.8" stroke="#00D693"/>
<circle cx="193.399" cy="250.748" r="3.5" transform="rotate(-3 193.399 250.748)" fill="white" fill-opacity="0.8" stroke="#00D693"/>
<circle cx="313.577" cy="214.696" r="3.5" transform="rotate(-3 313.577 214.696)" fill="white" fill-opacity="0.8" stroke="#00D693"/>
<circle cx="428.166" cy="71.9946" r="3.5" transform="rotate(-3 428.166 71.9946)" fill="white" fill-opacity="0.8" stroke="#00D693"/>
<circle cx="557.532" cy="211.266" r="3.5" transform="rotate(-3 557.532 211.266)" fill="white" fill-opacity="0.8" stroke="#00D693"/>
<circle cx="670.786" cy="43.1006" r="3.5" transform="rotate(-3 670.786 43.1006)" fill="white" fill-opacity="0.8" stroke="#00D693"/>
<circle cx="797.643" cy="134.498" r="3.5" transform="rotate(-3 797.643 134.498)" fill="white" fill-opacity="0.8" stroke="#00D693"/>
<circle cx="916.044" cy="64.5447" r="3.5" transform="rotate(-3 916.044 64.5447)" fill="white" fill-opacity="0.8" stroke="#00D693"/>
<circle cx="1035.77" cy="19.9033" r="3.5" transform="rotate(-3 1035.77 19.9033)" fill="white" fill-opacity="0.8" stroke="#00D693"/>
<circle cx="1164.13" cy="139.917" r="3.5" transform="rotate(-3 1164.13 139.917)" fill="white" fill-opacity="0.8" stroke="#00D693"/>
</svg>
