<svg width="40" height="34" viewBox="0 0 40 34" fill="none" xmlns="http://www.w3.org/2000/svg">
<path d="M3.72115 0.960407L38.1399 15.3569C39.1572 15.7825 39.5875 16.8487 39.101 17.7384C38.8998 18.1063 38.5606 18.4029 38.1399 18.5789L3.72115 32.9754C2.70385 33.4009 1.48475 33.0246 0.998217 32.1349C0.786794 31.7483 0.741406 31.3081 0.87034 30.8946L4.31291 19.8547C4.39915 19.5781 4.66611 19.3734 4.99092 19.3349L21.6694 17.3535C21.8131 17.3355 21.9322 17.2529 21.9872 17.1401L22.0159 17.0504C22.0432 16.8831 21.9331 16.7263 21.7605 16.6673L21.6694 16.6464L5.01044 14.6651C4.68567 14.6264 4.41877 14.4218 4.33254 14.1452L0.87034 3.04121C0.573633 2.08974 1.21504 1.10806 2.30297 0.848568C2.77572 0.735806 3.27908 0.775501 3.72115 0.960407Z" fill="url(#paint0_linear_208_1458)"/>
<defs>
<linearGradient id="paint0_linear_208_1458" x1="0.797882" y1="30.8388" x2="43.4125" y2="19.9334" gradientUnits="userSpaceOnUse">
<stop stop-color="#4285F4"/>
<stop offset="0.21" stop-color="#6A7CD1" stop-opacity="0.973254"/>
<stop offset="0.67" stop-color="#D96570" stop-opacity="0.9"/>
<stop offset="1" stop-color="#D96570" stop-opacity="0.9"/>
</linearGradient>
</defs>
</svg>
