<svg width="32" height="29" viewBox="0 0 32 29" fill="none" xmlns="http://www.w3.org/2000/svg">
<path fill-rule="evenodd" clip-rule="evenodd" d="M15.9713 8.87928e-05C12.1791 0.00056375 8.51075 1.25664 5.62248 3.54363C2.7342 5.83062 0.814431 8.99932 0.206573 12.4829C-0.401285 15.9665 0.342426 19.5377 2.30467 22.5578C4.26691 25.5778 7.31968 27.8496 10.9169 28.9669C11.7156 29.1049 12.0578 28.6483 12.0578 28.2554C12.0578 27.8626 12.0578 26.9706 12.0578 25.7283C7.6195 26.6202 6.68391 23.732 6.68391 23.732C6.37181 22.8219 5.71492 22.0483 4.83556 21.5553C3.38654 20.6421 4.94965 20.6527 4.94965 20.6527C5.45579 20.7193 5.93889 20.8926 6.36206 21.1594C6.78523 21.4263 7.13728 21.7796 7.39131 22.1924C7.83325 22.9301 8.5719 23.4742 9.44485 23.7052C10.3178 23.9362 11.2536 23.8351 12.0464 23.4241C12.1108 22.6707 12.4677 21.9649 13.0505 21.4385C9.5135 21.0562 5.78256 19.782 5.78256 14.0906C5.75669 12.6124 6.34531 11.1821 7.42554 10.0981C6.93659 8.81775 6.99376 7.41165 7.58527 6.16933C7.58527 6.16933 8.9202 5.76583 11.978 7.68775C14.5925 7.02405 17.3502 7.02405 19.9647 7.68775C23.0111 5.76583 24.346 6.16933 24.346 6.16933C24.9375 7.41165 24.9947 8.81775 24.5057 10.0981C25.5859 11.1821 26.1746 12.6124 26.1487 14.0906C26.1487 19.8033 22.4178 21.0562 18.858 21.4279C19.2393 21.7876 19.5334 22.2192 19.7203 22.6936C19.9073 23.1679 19.9828 23.6741 19.9419 24.178C19.9419 26.1636 19.9419 27.767 19.9419 28.2554C19.9419 28.7439 20.2271 29.1155 21.0828 28.9669C24.6848 27.8482 27.7407 25.572 29.7026 22.5464C31.6646 19.5209 32.4042 15.9438 31.7888 12.4566C31.1735 8.9695 29.2434 5.80043 26.3448 3.51769C23.4461 1.23496 19.7685 -0.0121196 15.9713 8.87928e-05Z" fill="#D0D0D0"/>
</svg>
